<svg width="18" height="18" viewBox="0 0 18 18" fill="none" xmlns="http://www.w3.org/2000/svg">
<mask id="path-1-inside-1_6141_384889" fill="white">
<path fill-rule="evenodd" clip-rule="evenodd" d="M2 0C0.895431 0 0 0.89543 0 2V16C0 17.1046 0.89543 18 2 18H16C17.1046 18 18 17.1046 18 16V2C18 0.895431 17.1046 0 16 0H2ZM2.5 9.50878L3.75476 8.10124L6.9496 11.675L14.2452 3.5L15.5 4.91752L6.9496 14.5L2.5 9.50878Z"/>
</mask>
<path fill-rule="evenodd" clip-rule="evenodd" d="M2 0C0.895431 0 0 0.89543 0 2V16C0 17.1046 0.89543 18 2 18H16C17.1046 18 18 17.1046 18 16V2C18 0.895431 17.1046 0 16 0H2ZM2.5 9.50878L3.75476 8.10124L6.9496 11.675L14.2452 3.5L15.5 4.91752L6.9496 14.5L2.5 9.50878Z" fill="#5D40AC"/>
<path d="M3.75476 8.10124L5.2458 6.76828L3.75265 5.09804L2.26184 6.77038L3.75476 8.10124ZM2.5 9.50878L1.00709 8.17791L-0.179343 9.5088L1.00711 10.8397L2.5 9.50878ZM6.9496 11.675L5.45855 13.0079L6.95089 14.6773L8.44179 13.0067L6.9496 11.675ZM14.2452 3.5L15.7428 2.17438L14.2513 0.489437L12.7531 2.16832L14.2452 3.5ZM15.5 4.91752L16.9923 6.24909L18.1757 4.92284L16.9976 3.5919L15.5 4.91752ZM6.9496 14.5L5.45671 15.8309L6.94892 17.5047L8.44189 15.8316L6.9496 14.5ZM2 2V2V-2C-0.209139 -2 -2 -0.209139 -2 2H2ZM2 16V2H-2V16H2ZM2 16H2H-2C-2 18.2091 -0.209139 20 2 20V16ZM16 16H2V20H16V16ZM16 16V20C18.2091 20 20 18.2091 20 16H16ZM16 2V16H20V2H16ZM16 2H20C20 -0.209138 18.2091 -2 16 -2V2ZM2 2H16V-2H2V2ZM2.26184 6.77038L1.00709 8.17791L3.99291 10.8396L5.24767 9.43211L2.26184 6.77038ZM8.44065 10.342L5.2458 6.76828L2.26371 9.4342L5.45855 13.0079L8.44065 10.342ZM12.7531 2.16832L5.45741 10.3433L8.44179 13.0067L15.7374 4.83168L12.7531 2.16832ZM16.9976 3.5919L15.7428 2.17438L12.7477 4.82562L14.0024 6.24314L16.9976 3.5919ZM8.44189 15.8316L16.9923 6.24909L14.0077 3.58596L5.45731 13.1684L8.44189 15.8316ZM1.00711 10.8397L5.45671 15.8309L8.44249 13.1691L3.99289 8.17789L1.00711 10.8397Z" fill="#5D40AC" mask="url(#path-1-inside-1_6141_384889)"/>
</svg>
