<svg width="24" height="24" viewBox="0 0 24 24" fill="none" xmlns="http://www.w3.org/2000/svg">
<path fill-rule="evenodd" clip-rule="evenodd" d="M11.9909 2C17.5135 2.00402 21.9909 6.47735 22 12C21.9909 17.5227 17.5135 21.996 11.9909 22C6.47355 21.9919 2.00403 17.5191 2 12.0018C2.00201 6.48309 6.47212 2.00807 11.9909 2ZM12.0233 19.7524C16.2891 19.7481 19.7462 16.2906 19.7505 12.0242C19.7451 7.75854 16.2883 4.30222 12.0233 4.29788C7.75817 4.30222 4.30141 7.75854 4.29599 12.0242C4.30033 16.2906 7.7574 19.7481 12.0233 19.7524ZM15.9938 16.1473L17.1161 14.3104L13.0766 11.9141V7.20929H10.8759V13.0766L15.9938 16.1473Z" fill="white" fill-opacity="1"/>
</svg>
