<svg width="10" height="10" viewBox="0 0 10 10" fill="none" xmlns="http://www.w3.org/2000/svg">
<path d="M9.72109 0.278586C9.42907 -0.0134348 8.95561 -0.0134348 8.66359 0.278586L4.99984 3.94234L1.33609 0.278586C1.04407 -0.0134348 0.570606 -0.0134348 0.278586 0.278586C-0.0134348 0.570606 -0.0134348 1.04407 0.278586 1.33609L3.94234 4.99984L0.278586 8.66359C-0.0134348 8.95561 -0.0134348 9.42907 0.278586 9.72109C0.570606 10.0131 1.04407 10.0131 1.33609 9.72109L4.99984 6.05734L8.66359 9.72109C8.95561 10.0131 9.42907 10.0131 9.72109 9.72109C10.0131 9.42907 10.0131 8.95561 9.72109 8.66359L6.05734 4.99984L9.72109 1.33609C10.0131 1.04407 10.0131 0.570606 9.72109 0.278586Z" fill="white" fill-opacity="0.94"/>
</svg>
