<svg width="18" height="18" viewBox="0 0 18 18" fill="none" xmlns="http://www.w3.org/2000/svg">
<path d="M16.0034 7.43372L14.4214 6.92651C14.3848 6.8313 14.3474 6.74121 14.3093 6.65479L15.0703 5.17053C15.2029 4.91052 15.1538 4.59668 14.9473 4.38904L13.6333 3.07141C13.4268 2.86377 13.1133 2.81396 12.8503 2.94727L11.3694 3.70276C11.2771 3.66138 11.1834 3.62219 11.0867 3.58484L10.5813 2.00281C10.4912 1.72302 10.2334 1.53516 9.9397 1.53516H8.07971C7.78675 1.53516 7.52967 1.72229 7.43921 2.00098L6.92798 3.58264C6.83716 3.61707 6.74195 3.65552 6.64527 3.69873L5.1731 2.94141C4.91126 2.80811 4.59705 2.85681 4.38977 3.06519L3.07178 4.38611C2.86597 4.59338 2.81653 4.90723 2.9491 5.16724L3.69947 6.63867C3.65808 6.73169 3.61927 6.82581 3.58338 6.92102L2.01013 7.42786C1.73145 7.51758 1.54358 7.77429 1.54285 8.06689L1.53699 9.92761C1.53626 10.2198 1.72266 10.4777 2.00244 10.5692L3.58704 11.0841C3.62219 11.1735 3.66028 11.2643 3.70166 11.3573L2.94617 12.8368C2.8136 13.0961 2.86267 13.4095 3.06848 13.6168L4.38025 14.9344C4.58899 15.1447 4.9054 15.1937 5.16284 15.059L6.64344 14.3053C6.73535 14.347 6.82727 14.3851 6.91956 14.421L7.43408 16.0016C7.52454 16.2792 7.78162 16.4659 8.07386 16.4659H9.93384C10.2253 16.4659 10.4824 16.2799 10.574 16.0009L11.0889 14.4196C11.1819 14.3837 11.2727 14.3463 11.3606 14.3075L12.8423 15.0626C13.1008 15.1959 13.415 15.1461 13.6231 14.9396L14.9385 13.6271C15.1443 13.4191 15.1941 13.1056 15.0623 12.8463L14.3086 11.361C14.3474 11.2723 14.3862 11.1801 14.4229 11.0841L16.0027 10.5758C16.2825 10.4865 16.4707 10.2286 16.4707 9.93494V8.07458C16.4707 7.78125 16.2825 7.5238 16.0034 7.43372ZM15.1245 9.44421L13.6934 9.90491C13.4868 9.97156 13.3235 10.1342 13.2583 10.3385C13.1689 10.6154 13.073 10.8461 12.9661 11.0416C12.8577 11.2372 12.854 11.473 12.9551 11.67L13.6406 13.0199L13.0181 13.6417L11.6799 12.9591C11.488 12.8595 11.2573 12.8588 11.0618 12.9584C10.8406 13.0726 10.6047 13.17 10.3389 13.2572C10.1367 13.3246 9.97705 13.4857 9.91114 13.6879L9.44458 15.1198H8.56238L8.09656 13.6886C8.02954 13.4813 7.86548 13.3195 7.65967 13.255C7.4187 13.1788 7.18616 13.0814 6.94886 12.9569C6.75586 12.8566 6.52478 12.8544 6.33142 12.954L4.98853 13.6381L4.36743 13.0133L5.05152 11.6744C5.14783 11.4847 5.14893 11.2577 5.05371 11.0673C4.92078 10.8014 4.8241 10.5699 4.74976 10.3392C4.68384 10.1356 4.52307 9.97375 4.3169 9.90564L2.88465 9.44055L2.88758 8.55981L4.31946 8.09839C4.5304 8.02954 4.69409 7.86218 4.75672 7.65051C4.82923 7.40808 4.92627 7.17187 5.04492 6.94958C5.14929 6.75549 5.15149 6.52258 5.05115 6.32629L4.37036 4.99072L4.99549 4.36414L6.33435 5.05298C6.5343 5.15405 6.77014 5.15039 6.9679 5.04089C7.15943 4.93396 7.3711 4.84607 7.67505 4.74683C7.87866 4.68018 8.0398 4.51868 8.10608 4.31396L8.56934 2.88135H9.44824L9.90674 4.31396C9.97266 4.52271 10.1375 4.68677 10.3477 4.75269C10.6025 4.83179 10.8391 4.93103 11.0522 5.04712C11.2478 5.15369 11.4814 5.15698 11.6799 5.05554L13.0261 4.3689L13.6487 4.99329L12.9595 6.33728C12.8606 6.53137 12.8613 6.76245 12.9624 6.95618C13.0671 7.15576 13.166 7.3938 13.2642 7.68201C13.3315 7.88342 13.4934 8.04236 13.6963 8.10754L15.1245 8.56567V9.44421V9.44421Z" fill="black" fill-opacity="0.75"/>
<path d="M9.33759 6.4944C8.66898 6.40413 8.00504 6.58242 7.46795 6.99327C6.93081 7.40438 6.58579 7.99884 6.49666 8.66758C6.40717 9.33798 6.5835 10.0033 6.99297 10.5398C7.40299 11.078 7.99794 11.4234 8.67003 11.5134C8.78255 11.528 8.89447 11.5353 9.00466 11.5353C10.269 11.5353 11.3482 10.5899 11.5153 9.33628C11.6992 7.95388 10.7223 6.67892 9.33759 6.4944ZM10.2221 9.16394V9.16439C10.1793 9.48945 10.0119 9.77821 9.75104 9.97816C9.49021 10.1777 9.16936 10.2641 8.84133 10.2204C8.51677 10.1777 8.22847 10.0102 8.0299 9.74891C7.83109 9.48849 7.74558 9.16577 7.78902 8.83984C7.86991 8.23344 8.39167 7.77613 9.00292 7.77613C9.05684 7.77613 9.11127 7.77961 9.16565 7.78685C9.83756 7.87657 10.3114 8.49455 10.2221 9.16394Z" fill="black" fill-opacity="0.75"/>
</svg>
