<svg width="18" height="18" viewBox="0 0 18 18" fill="none" xmlns="http://www.w3.org/2000/svg">
<path fill-rule="evenodd" clip-rule="evenodd" d="M10.275 12.641C9.97501 12.941 9.52501 12.941 9.22501 12.641C8.92501 12.341 8.92501 11.816 9.22501 11.591L12.15 8.66597L9.22501 5.74097C9.00001 5.51597 9.00001 5.06597 9.22501 4.76597C9.52501 4.46597 9.97501 4.39097 10.275 4.69097L13.725 8.14097C14.025 8.44097 14.025 8.89097 13.725 9.19097L10.275 12.641ZM5.77501 12.641C5.47501 12.941 5.02501 12.941 4.72501 12.641C4.42501 12.341 4.42501 11.816 4.72501 11.591L7.65001 8.66597L4.72501 5.74097C4.50001 5.51597 4.50001 5.06597 4.72501 4.76597C5.02501 4.46597 5.47501 4.39097 5.77501 4.69097L9.22501 8.14097C9.52501 8.44097 9.52501 8.89097 9.22501 9.19097L5.77501 12.641Z" fill="black" fill-opacity="0.64"/>
</svg>
