<svg width="18" height="18" viewBox="0 0 18 18" fill="none" xmlns="http://www.w3.org/2000/svg">
<path fill-rule="evenodd" clip-rule="evenodd" d="M8.175 4.725C8.475 4.425 8.925 4.425 9.225 4.725C9.525 5.025 9.525 5.55 9.225 5.775L6.3 8.7L9.225 11.625C9.45 11.85 9.45 12.3 9.225 12.6C8.925 12.9 8.475 12.975 8.175 12.675L4.725 9.225C4.425 8.925 4.425 8.475 4.725 8.175L8.175 4.725ZM12.675 4.725C12.975 4.425 13.425 4.425 13.725 4.725C14.025 5.025 14.025 5.55 13.725 5.775L10.8 8.7L13.725 11.625C13.95 11.85 13.95 12.3 13.725 12.6C13.425 12.9 12.975 12.975 12.675 12.675L9.225 9.225C8.925 8.925 8.925 8.475 9.225 8.175L12.675 4.725Z" fill="black" fill-opacity="0.64"/>
</svg>
