<svg width="18" height="18" viewBox="0 0 18 18" fill="none" xmlns="http://www.w3.org/2000/svg">
<path fill-rule="evenodd" clip-rule="evenodd" d="M9 1.5C4.85786 1.5 1.5 4.85786 1.5 9C1.5 13.1421 4.85786 16.5 9 16.5C13.1421 16.5 16.5 13.1421 16.5 9C16.5 7.01088 15.7098 5.10322 14.3033 3.6967C12.8968 2.29018 10.9891 1.5 9 1.5ZM8.25 5.25V9.75H9.75V5.25H8.25ZM8.25 11.25V12.75H9.75V11.25H8.25ZM3 9C3 12.3137 5.68629 15 9 15C10.5913 15 12.1174 14.3679 13.2426 13.2426C14.3679 12.1174 15 10.5913 15 9C15 5.68629 12.3137 3 9 3C5.68629 3 3 5.68629 3 9Z" fill="#FA7A7E"/>
</svg>
