<svg width="24" height="24" viewBox="0 0 24 24" fill="none" xmlns="http://www.w3.org/2000/svg">
<path d="M13.9864 10.3281H6.99941V11.8281H13.9864V10.3281Z" fill="white" fill-opacity="0.94"/>
<path d="M6.99941 7.26565H13.9864V8.76565H6.99941V7.26565Z" fill="white" fill-opacity="0.94"/>
<path d="M16.0015 13.3281H7.00153V14.8281H16.0015V13.3281Z" fill="white" fill-opacity="0.94"/>
<path fill-rule="evenodd" clip-rule="evenodd" d="M20.8089 6.62452C20.8074 4.62757 19.1723 2.9947 17.1753 2.99609L6.62433 3.00354C4.62732 3.00494 2.99445 4.64014 2.99585 6.63708L3.00201 15.3751C3.00293 16.6507 3.67395 17.7721 4.67645 18.4195L4.67785 20.3763C4.67828 20.9353 5.35442 21.2148 5.7492 20.8196L7.56262 19.0029L17.1866 18.9961C19.1836 18.9947 20.8165 17.3596 20.8151 15.3626L20.8089 6.62452ZM17.1852 16.9961L6.63422 17.0036C5.73517 17.0042 5.00269 16.2727 5.00202 15.3737L4.99585 6.63571C4.99524 5.73672 5.72675 5.00418 6.62573 5.00357L17.1767 4.99612C18.0757 4.99551 18.8082 5.72695 18.8089 6.626L18.8151 15.364C18.8157 16.263 18.0842 16.9955 17.1852 16.9961Z" fill="white" fill-opacity="0.94"/>
</svg>
