<svg width="24" height="24" viewBox="0 0 24 24" fill="none" xmlns="http://www.w3.org/2000/svg">
<path fill-rule="evenodd" clip-rule="evenodd" d="M2 12C2 6.48003 6.48 2.00003 12 2.00003C17.52 2.00003 22 6.48003 22 12C22 17.52 17.52 22 12 22C6.48 22 2 17.52 2 12ZM13 16V18H11V16H13ZM12 20C7.59 20 4 16.41 4 12C4 7.59005 7.59 4.00005 12 4.00005C16.41 4.00005 20 7.59005 20 12C20 16.41 16.41 20 12 20ZM8 10C8 7.79003 9.79 6.00003 12 6.00003C14.21 6.00003 16 7.79003 16 10C16 11.2829 15.21 11.9733 14.4408 12.6456C13.711 13.2833 13 13.9047 13 15H11C11 13.1788 11.9421 12.4566 12.7704 11.8217C13.4202 11.3236 14 10.8792 14 10C14 8.90003 13.1 8.00003 12 8.00003C10.9 8.00003 10 8.90003 10 10H8Z" fill="white" fill-opacity="1"/>
</svg>
