<svg width="18" height="18" viewBox="0 0 18 18" fill="none" xmlns="http://www.w3.org/2000/svg">
<path fill-rule="evenodd" clip-rule="evenodd" d="M1.51978 9C1.51978 4.86 4.87978 1.5 9.01978 1.5C13.1598 1.5 16.5198 4.86 16.5198 9C16.5198 13.14 13.1598 16.5 9.01978 16.5C4.87978 16.5 1.51978 13.14 1.51978 9ZM9.76978 8.25V12.75H8.26978V8.25H9.76978ZM9.01978 15C5.71228 15 3.01978 12.3075 3.01978 9C3.01978 5.6925 5.71228 3 9.01978 3C12.3273 3 15.0198 5.6925 15.0198 9C15.0198 12.3075 12.3273 15 9.01978 15ZM9.76978 5.25V6.75H8.26978V5.25H9.76978Z" fill="#99C1FF"/>
</svg>
