<svg width="19" height="21" viewBox="0 0 19 21" fill="none" xmlns="http://www.w3.org/2000/svg">
<path d="M2.65363 5.7511L5.52917 12.2048C5.54149 12.2365 5.55558 12.2646 5.57671 12.2946L8.44168 18.7324C8.0917 18.782 7.73863 18.8067 7.38515 18.8064C4.27688 18.8062 1.50141 16.8598 0.442311 13.9376C-0.616785 11.0153 0.267213 7.74267 2.65363 5.7511Z" fill="#F8F9FA"/>
<path d="M4.654 0.329307C5.54829 0.109374 6.46597 -0.00119741 7.38691 9.77843e-06C12.4045 -0.00469496 16.8376 3.26597 18.3135 8.06159C19.7894 12.8572 17.9626 18.0545 13.8106 20.8719L12.1272 17.0913C14.5134 15.0999 15.3975 11.8277 14.3389 8.90561C13.2802 5.98352 10.5054 4.0369 7.39748 4.03599C7.044 4.03577 6.69094 4.06049 6.34094 4.10994L4.654 0.329307Z" fill="#F8F9FA"/>
</svg>
