<svg width="24" height="24" viewBox="0 0 24 24" fill="none" xmlns="http://www.w3.org/2000/svg">
<path d="M22.6328 10.7092C22.2464 10.322 21.6159 10.3181 21.2234 10.7012L19.9244 11.9715C19.9248 11.9419 19.9291 11.913 19.9292 11.8834C19.9432 9.51534 19.0238 7.28323 17.3395 5.59979C15.6562 3.91538 13.4101 2.98058 11.0165 2.96683C8.58812 2.96683 6.35295 3.875 4.66264 5.5279C2.95939 7.19263 2.01414 9.41292 2.00016 11.781C1.98624 14.149 2.90562 16.3811 4.58994 18.0646C6.27329 19.749 8.51938 20.6838 10.9129 20.6975C13.3413 20.6975 15.5764 19.7893 17.2667 18.1366L15.8664 16.7357C14.5525 18.0212 12.8124 18.7275 10.9657 18.7275C9.06224 18.7166 7.31615 17.9897 6.00535 16.6795C4.69651 15.3695 3.98136 13.6348 3.99229 11.7928C4.00328 9.95072 4.73838 8.22298 6.06309 6.92862C7.37693 5.64312 9.11705 4.93685 10.9637 4.93685C12.8672 4.94772 14.6133 5.67469 15.9231 6.98481C17.2329 8.29486 17.9481 10.0296 17.9372 11.8716C17.937 11.8988 17.9332 11.9254 17.9327 11.9526L16.6565 10.6756C16.2701 10.2885 15.6395 10.2846 15.2471 10.6677C14.8566 11.0499 14.8526 11.6735 15.2401 12.0606L15.512 12.3327L17.4732 14.295L18.2104 15.0325C18.3966 15.2186 18.6486 15.324 18.9146 15.3251C19.0282 15.3251 19.1333 15.2974 19.2354 15.2631C19.2912 15.2444 19.3403 15.2171 19.392 15.1889C19.4715 15.1455 19.5531 15.1046 19.6188 15.0403L22.6249 12.102C23.0154 11.7198 23.0193 11.0962 22.6328 10.7092Z" fill="white" fill-opacity="1"/>
</svg>
