<svg width="24" height="24" viewBox="0 0 24 24" fill="none" xmlns="http://www.w3.org/2000/svg">
<path fill-rule="evenodd" clip-rule="evenodd" d="M17.4467 15.7743L20.0767 18.3752C20.4897 18.7836 20.4897 19.4462 20.0767 19.8547C19.6627 20.2631 18.9937 20.2631 18.5797 19.8547L15.7687 17.0738L13.9987 15.3233L13.2667 14.6004C11.7207 15.6972 9.70572 16.1788 7.55472 15.529C5.33072 14.8556 3.59672 12.9885 3.13672 10.7337C2.20072 6.14303 6.21172 2.17639 10.8537 3.10204C13.1337 3.55695 15.0217 5.27177 15.7027 7.47117C16.3597 9.59838 15.8727 11.5921 14.7627 13.12L15.4997 13.8449L17.4467 15.7743ZM9.49972 4.94444C7.00972 4.94444 4.99972 6.9322 4.99972 9.39466C4.99972 11.8571 7.00972 13.8449 9.49972 13.8449C11.9897 13.8449 13.9997 11.8571 13.9997 9.39466C13.9997 6.9322 11.9897 4.94444 9.49972 4.94444Z" fill="white" fill-opacity="1"/>
</svg>
