<svg width="44" height="44" viewBox="0 0 44 44" fill="none" xmlns="http://www.w3.org/2000/svg">
<path d="M13.09 35.3071H5.53671V13.7515H13.42V6.0518H29.865V11.6813C31.185 12.0808 32.4134 12.6619 33.5684 13.4246V6.0518C33.5684 5.07118 33.2017 4.21767 32.4684 3.47313C31.735 2.74674 30.8734 2.38354 29.865 2.38354H11.5867L1.83337 12.0445V35.2889C1.83337 36.2695 2.20004 37.123 2.93337 37.8676C3.66671 38.594 4.52837 38.9572 5.53671 38.9572H17.16C16.1884 38.3579 15.2717 37.6497 14.4284 36.7962C13.9334 36.3058 13.5117 35.7974 13.09 35.2889V35.3071Z" fill="black" fill-opacity="0.7"/>
<path d="M34.5033 32.547C35.2183 31.6754 35.7133 30.6766 36.025 29.5507C36.3367 28.4429 36.4833 27.2807 36.4833 26.1003C36.4833 23.1585 35.4933 20.6524 33.55 18.5641C33.44 18.4369 33.33 18.3098 33.2017 18.1827C32.1933 17.1839 31.075 16.4212 29.8467 15.8764C28.435 15.259 26.895 14.9321 25.2083 14.9321C22.0733 14.9321 19.3967 16.0217 17.215 18.1827C15.0334 20.3437 13.9333 22.995 13.9333 26.1003C13.9333 29.2056 15.0334 31.857 17.215 34.018C17.71 34.5083 18.2233 34.9259 18.755 35.2891C20.625 36.5966 22.77 37.2685 25.2083 37.2685C26.4 37.2685 27.555 37.1233 28.6917 36.8146C29.8283 36.5058 30.8183 35.9974 31.7167 35.3073L33.22 36.7964L39.6733 43.1886L42.46 40.4283L34.5033 32.547V32.547ZM30.4333 31.2577C30.25 31.4393 30.0483 31.5664 29.865 31.7298C28.5817 32.7831 27.0417 33.3279 25.2267 33.3279C23.155 33.3279 21.4133 32.6378 20.02 31.2577C18.6267 29.8776 17.93 28.1524 17.93 26.1003C17.93 24.0483 18.6267 22.3231 20.02 20.943C21.4133 19.5629 23.155 18.8728 25.2267 18.8728C27.0417 18.8728 28.5817 19.4357 29.865 20.4708C30.0483 20.6161 30.25 20.7614 30.4333 20.943C31.8267 22.3231 32.5233 24.0483 32.5233 26.1003C32.5233 28.1524 31.8267 29.8776 30.4333 31.2577V31.2577Z" fill="black" fill-opacity="0.7"/>
</svg>
