<svg width="24" height="24" viewBox="0 0 24 24" fill="none" xmlns="http://www.w3.org/2000/svg">
<path fill-rule="evenodd" clip-rule="evenodd" d="M17 8.5C17 11.2613 14.7613 13.5 12 13.5C9.23872 13.5 7 11.2613 7 8.5C7 5.73872 9.23872 3.5 12 3.5C14.7613 3.5 17 5.73872 17 8.5ZM15 8.5C15 6.84328 13.6567 5.5 12 5.5C10.3433 5.5 9 6.84328 9 8.5C9 10.1567 10.3433 11.5 12 11.5C13.6567 11.5 15 10.1567 15 8.5ZM20 19.5C20 17.2894 18.1444 15.5 15.889 15.5H8.11102C5.85565 15.5 4 17.2894 4 19.5H6C6 18.4106 6.94427 17.5 8.11102 17.5H15.889C17.0557 17.5 18 18.4106 18 19.5H20Z" fill="white" fill-opacity="1"/>
</svg>
