<svg width="18" height="18" viewBox="0 0 18 18" fill="none" xmlns="http://www.w3.org/2000/svg">
<path d="M9 4.5C10.3791 4.49541 11.7314 4.88009 12.9016 5.60979C14.0718 6.3395 15.0123 7.38462 15.615 8.625C15.009 9.86296 14.0678 10.906 12.8984 11.6356C11.729 12.3652 10.3783 12.7519 9 12.7519C7.62168 12.7519 6.27101 12.3652 5.10161 11.6356C3.9322 10.906 2.99099 9.86296 2.385 8.625C2.98771 7.38462 3.92822 6.3395 5.09841 5.60979C6.26859 4.88009 7.62095 4.49541 9 4.5ZM9 3C7.21918 3.00137 5.47998 3.53859 4.00861 4.5418C2.53725 5.545 1.40181 6.96775 0.75 8.625C1.40163 10.282 2.53715 11.7044 4.00865 12.707C5.48015 13.7095 7.21945 14.2457 9 14.2457C10.7806 14.2457 12.5198 13.7095 13.9914 12.707C15.4629 11.7044 16.5984 10.282 17.25 8.625C16.5982 6.96775 15.4628 5.545 13.9914 4.5418C12.52 3.53859 10.7808 3.00137 9 3ZM9 6.75C9.37084 6.75 9.73335 6.85997 10.0417 7.06599C10.35 7.27202 10.5904 7.56486 10.7323 7.90747C10.8742 8.25008 10.9113 8.62708 10.839 8.99079C10.7666 9.35451 10.588 9.6886 10.3258 9.95083C10.0636 10.213 9.72951 10.3916 9.3658 10.464C9.00208 10.5363 8.62508 10.4992 8.28247 10.3573C7.93986 10.2154 7.64702 9.97504 7.44099 9.66669C7.23497 9.35835 7.125 8.99584 7.125 8.625C7.125 8.12772 7.32254 7.65081 7.67417 7.29917C8.02581 6.94754 8.50272 6.75 9 6.75ZM9 5.25C8.33249 5.25 7.67997 5.44794 7.12495 5.81879C6.56993 6.18964 6.13735 6.71674 5.88191 7.33344C5.62646 7.95014 5.55962 8.62874 5.68985 9.28343C5.82008 9.93812 6.14151 10.5395 6.61351 11.0115C7.08552 11.4835 7.68688 11.8049 8.34157 11.9352C8.99626 12.0654 9.67486 11.9985 10.2916 11.7431C10.9083 11.4876 11.4354 11.0551 11.8062 10.5C12.1771 9.94503 12.375 9.29251 12.375 8.625C12.373 7.7305 12.0168 6.87321 11.3843 6.2407C10.7518 5.6082 9.8945 5.25198 9 5.25Z" fill="black" fill-opacity="0.7"/>
</svg>
