<svg width="85" height="85" viewBox="0 0 85 85" fill="none" xmlns="http://www.w3.org/2000/svg">
<g clip-path="url(#clip0_1_2651)">
<path d="M73 0H12C5.37258 0 0 5.37258 0 12V73C0 79.6274 5.37258 85 12 85H73C79.6274 85 85 79.6274 85 73V12C85 5.37258 79.6274 0 73 0Z" fill="black"/>
<path d="M46.4836 15.3863H24.5618V22.7511H46.4836C57.2795 22.7511 66.0482 31.4763 66.0482 42.2185C66.0482 52.9608 57.2795 61.686 46.4836 61.686H24.5618V69.0508H46.4836C61.381 69.0508 73.4969 56.995 73.4969 42.1716C73.4969 27.3482 61.381 15.2925 46.4836 15.2925V15.3863Z" fill="white"/>
<path d="M48.8879 45.9712V38.5595H23.006V24.0645H15.6045V60.4193H23.006V45.9712H48.8879Z" fill="white"/>
</g>
<defs>
<clipPath id="clip0_1_2651">
<rect width="85" height="85" fill="white"/>
</clipPath>
</defs>
</svg>
